<svg xmlns="http://www.w3.org/2000/svg" width="23.55" height="20.606" viewBox="0 0 23.55 20.606">
  <path id="Icon_awesome-suitcase" data-name="Icon awesome-suitcase" d="M5.887,22.856H17.662V4.458A2.208,2.208,0,0,0,15.455,2.25H8.1A2.208,2.208,0,0,0,5.887,4.458ZM8.831,5.194h5.887V6.666H8.831ZM23.55,8.873V20.648a2.208,2.208,0,0,1-2.208,2.208H19.134V6.666h2.208A2.208,2.208,0,0,1,23.55,8.873ZM4.416,22.856H2.208A2.208,2.208,0,0,1,0,20.648V8.873A2.208,2.208,0,0,1,2.208,6.666H4.416Z" transform="translate(0 -2.25)" fill="#a3a9ac"/>
</svg>
