<svg id="Layer_1" data-name="Layer 1" xmlns="http://www.w3.org/2000/svg" viewBox="0 0 20.008 20.007">
  <path d="M12,4a1,1,0,0,0-1,1A1.9,1.9,0,0,1,7.757,6.343,1,1,0,1,0,6.318,7.732l.025.025A1.9,1.9,0,0,1,5,11a1,1,0,0,0,0,2,1.9,1.9,0,0,1,1.343,3.243,1,1,0,0,0,1.414,1.414A1.9,1.9,0,0,1,11,19a1,1,0,0,0,2,0,1.9,1.9,0,0,1,3.243-1.343,1,1,0,0,0,1.439-1.389l-.025-.025A1.9,1.9,0,0,1,19,13a1,1,0,0,0,0-2,1.9,1.9,0,0,1-1.343-3.243,1,1,0,0,0-1.414-1.414A1.9,1.9,0,0,1,13,5,1,1,0,0,0,12,4Zm-2.992.777a3,3,0,0,1,5.984,0,3,3,0,0,1,4.23,4.231,3,3,0,0,1,0,5.984,3,3,0,0,1-4.231,4.23,3,3,0,0,1-5.984,0,3,3,0,0,1-4.231-4.23,3,3,0,0,1,0-5.984A3,3,0,0,1,9.008,4.777Z" transform="translate(-1.996 -1.996)" style="fill: #082747"/>
  <path d="M12,10a2,2,0,1,0,2,2A2,2,0,0,0,12,10ZM9.172,9.172a4,4,0,1,1,5.754,5.558c-.032.033-.065.066-.1.1A4,4,0,0,1,9.172,9.172Z" transform="translate(-1.996 -1.996)" style="fill: #082747"/>
</svg>
