<svg id="Layer_1" data-name="Layer 1" xmlns="http://www.w3.org/2000/svg" viewBox="0 0 896.596 896.784">
  <path d="M510.827,64.042c247.1.027,448.767,201.816,448.28,448.541-.49,247.641-201.839,448.844-448.57,448.241-247.462-.6-447.7-200.956-448.024-448.289C62.184,265.653,263.743,64.014,510.827,64.042ZM916.775,512.365c-.036-223.591-181.117-405.318-405.726-405.778C287.158,106.128,105.124,287.84,104.89,512.378c-.233,223.612,181.448,405.165,405.673,405.8C733.9,918.818,916.811,736.085,916.775,512.365ZM535.795,657.3H478.856c0-11.373-.608-22.537.128-33.612,1.485-22.365,6.658-43.815,18.344-63.3,9.094-15.164,20.675-28.25,33.541-40.276,15.979-14.935,32.148-29.678,47.81-44.94,9.222-8.985,17.418-19.009,21.679-31.483,10.208-29.883,3.682-56.569-16.2-80.337-33.016-39.469-88.235-40.821-122.05-21.066-21.314,12.45-34.093,31.5-41.553,54.414-3.344,10.272-5.653,20.881-8.651,32.155l-60.636-7.2c.779-5.2,1.337-10.1,2.263-14.924,5.2-27.06,14.589-52.3,32.253-73.943,21.52-26.369,49.555-41.723,82.58-48.061,34.471-6.616,68.92-5.9,102.442,4.986,42.921,13.94,74.68,41.177,89.113,84.564,13.856,41.655,7.048,81-20.227,116.156-17.3,22.3-38.82,40.415-59.042,59.832-8.895,8.541-17.895,17.136-25.622,26.7-11.477,14.2-15.858,31.37-17.242,49.325C537.005,636.423,536.474,646.58,535.795,657.3ZM475.158,777.74V710.329h67.458V777.74Z" transform="translate(-62.512 -64.042)" style="fill: #fff"/>
</svg>
